<svg xmlns="http://www.w3.org/2000/svg" width="83.206" height="121.714" viewBox="0 0 83.206 121.714">
  <g id="icon-location-2" transform="translate(-34.184 -11.083)">
    <path id="Tracciato_48714" data-name="Tracciato 48714" d="M44.34,43.59a.2.2,0,0,1,.02-.09.17.17,0,0,0-.01.07v.02Z" fill="#e6292d"/>
    <path id="Tracciato_48715" data-name="Tracciato 48715" d="M44.42,43.18a1.443,1.443,0,0,1-.04.21c.01-.04.01-.09.02-.13a.12.12,0,0,1,.02-.08Z" fill="#e6292d"/>
    <path id="Tracciato_48716" data-name="Tracciato 48716" d="M44.42,43.18v-.02S44.43,43.14,44.42,43.18Z" fill="#e6292d"/>
    <path id="Tracciato_48717" data-name="Tracciato 48717" d="M45.41,39.59s.03-.07.05-.11a.308.308,0,0,1-.05.12h0Z" fill="#e6292d"/>
    <path id="Tracciato_48718" data-name="Tracciato 48718" d="M45.57,39.21a.393.393,0,0,1-.02.06.726.726,0,0,1-.06.14c0,.01-.01.02-.01.03a.076.076,0,0,1-.02.04.108.108,0,0,1,.02-.07l.03-.06c.01-.02.02-.03.02-.05C45.55,39.25,45.56,39.23,45.57,39.21Z" fill="#e6292d"/>
    <path id="Tracciato_48719" data-name="Tracciato 48719" d="M48.92,33.7a.591.591,0,0,1-.05.08.555.555,0,0,0-.06.08l-.03.03c-.07.08-.11.13-.13.15a1.837,1.837,0,0,1,.27-.34Z" fill="#e6292d"/>
    <path id="Tracciato_48720" data-name="Tracciato 48720" d="M56.33,26.23a.147.147,0,0,1-.04.02,1.148,1.148,0,0,0,.1-.08c-.01.02-.03.03-.05.05h-.01Z" fill="#e6292d"/>
    <path id="Tracciato_48721" data-name="Tracciato 48721" d="M61.23,23.36l-.14.08h-.01a.147.147,0,0,1-.04.02C60.54,23.64,61.12,23.39,61.23,23.36Z" fill="#e6292d"/>
    <path id="Tracciato_48722" data-name="Tracciato 48722" d="M83.05,86.92a.078.078,0,0,1,.03-.04l-.01.02s-.02.01-.02.02Z" fill="#e6292d"/>
    <path id="Tracciato_48723" data-name="Tracciato 48723" d="M83.82,81.52a.581.581,0,0,1-.1.12.138.138,0,0,0,.03-.04C83.77,81.58,83.79,81.55,83.82,81.52Z" fill="#e6292d"/>
    <path id="Tracciato_48724" data-name="Tracciato 48724" d="M83.93,81.38s-.05.07-.08.11c0,.01-.02.02-.03.03.01,0,.01-.02.01-.02a.435.435,0,0,1,.06-.07A.218.218,0,0,1,83.93,81.38Z" fill="#e6292d"/>
    <path id="Tracciato_48725" data-name="Tracciato 48725" d="M90.12,93.99c-.12.15-.24.31-.36.46q-.48.615-.99,1.23c.24-.53.48-1.06.71-1.6a3.4,3.4,0,0,1,.64-.09Z" fill="#e6292d"/>
    <path id="Tracciato_48726" data-name="Tracciato 48726" d="M93.04,85.86a.123.123,0,0,0-.02.05h-.01C93.02,85.89,93.03,85.88,93.04,85.86Z" fill="#e6292d"/>
    <path id="Sottrazione_5" data-name="Sottrazione 5" d="M4857.8-250.2a5.658,5.658,0,0,1-2.606-.617,4.234,4.234,0,0,1-2.05-2.3,6.167,6.167,0,0,1-1.86-1.74c-1.376-2-2.8-4.089-4.34-6.4-5.747-8.635-11.208-17.44-16.231-26.17a190.211,190.211,0,0,1-13.2-26.96,88.112,88.112,0,0,1-4.562-14.849c-1.116-5.835-1.011-10.846.321-15.321a35.33,35.33,0,0,1,7.36-12.73,43.109,43.109,0,0,1,11.01-9.669c7.5-4.368,16.213-4.957,23.751-4.957,1.264,0,2.63.018,4.3.057a86.346,86.346,0,0,1,13.188,1.041A28.156,28.156,0,0,1,4885-365.93a24.906,24.906,0,0,1,8.472,11.523,32.769,32.769,0,0,1,1.767,14.327,78.427,78.427,0,0,1-3.47,15.76c-1.457,4.677-3.072,9.39-4.939,14.41-6.008,16.116-13.278,32.037-20.308,47.434l-.016.034c-1.471,3.222-2.992,6.553-4.477,9.832A4.417,4.417,0,0,1,4857.8-250.2Zm2.124-21.836h0c-1.812,1.173-3.754,2.374-5.771,3.57.878,1.326,1.686,2.537,2.471,3.7,1.144-2.515,2.285-5.029,3.3-7.269Zm-7.83-13.132h0c-2.109,1.34-4.2,2.575-6.22,3.67.528.865,1.046,1.71,1.57,2.54,1.322-1.966,2.844-4,4.65-6.21Zm16.031-3.839h0a3.422,3.422,0,0,0-.64.09c-.229.537-.471,1.071-.684,1.542l-.027.059c.326-.394.66-.808.989-1.23.061-.075.121-.153.181-.231l0-.006c.058-.075.117-.151.175-.224Zm-17.94-13.081h0a78.959,78.959,0,0,1-12.381,6.911c.778,1.4,1.608,2.855,2.54,4.46.951-.923,1.951-1.787,3.161-2.8a26.393,26.393,0,0,0,2.61-2.44c.016-.015.057-.064.11-.127l.016-.019.019-.022c.044-.053.095-.113.146-.172a.328.328,0,0,0,.091-.109l.071-.093.019-.024c.079-.1.161-.209.189-.253.389-.561.729-1.081,1.041-1.59.771-1.249,1.569-2.5,2.37-3.721Zm4.76-47.167A20.8,20.8,0,0,0,4841-343.84a14.851,14.851,0,0,0-4.5,7.06,9.641,9.641,0,0,0,1.351,8.1c2.282,3.08,6.4,4.122,10.131,4.736l-.019.015a.452.452,0,0,1-.082.058l-.066.053c-.358.289-.765.617-1.154.937-1,.829-1.9,1.627-2.76,2.44-1.808,1.711-3.457,3.528-4.83,5.08l-.823.928c-2.152,2.429-4.377,4.941-6.8,7.191.295.628.628,1.309,1.02,2.08,1.493-1.775,3.031-3.606,4.387-5.221l.17-.2c1.528-1.819,3.1-3.693,4.652-5.536,2.079-2.477,4.264-5.1,6.494-7.793l.016,0c2.7.437,5.4.787,8.01,1.04.981.095,2.138.192,3.275.192a11.827,11.827,0,0,0,4.765-.842c3.243-1.392,5.586-4.729,6.777-9.651,3.947-3.739,8.651-8.087,13.613-11.989a6.719,6.719,0,0,1,.689-.49c-.01-.1-.018-.2-.025-.306l0-.025c-.007-.092-.014-.187-.022-.279a.811.811,0,0,1-.012-.136v-.009c0-.048,0-.1-.009-.155.036.189.05.21.055.21l0,0a1.119,1.119,0,0,0-.094-.485.911.911,0,0,1,.037.257.283.283,0,0,1-.01-.045.281.281,0,0,0-.01-.045l-.048-.251c-.149-.79-.3-1.607-.522-2.409l-.034-.137-.023-.093c-.021-.085-.042-.171-.063-.259-2.324,2.287-4.73,4.773-7.149,7.39-1.878,2.029-3.791,4.15-5.847,6.485.016-.113.031-.228.045-.335.315-2.411.48-5.191-.679-7.52a9.388,9.388,0,0,0-5.689-4.517c1.471-1.1,3.056-2.3,4.989-3.774.489-.37,1.022-.78,1.73-1.329a.742.742,0,0,1,.08-.06l.166-.13.037-.029c.235-.184.527-.414.609-.481,1.134-.879,2.079-1.611,3.05-2.369l.281-.219.035-.027c.7-.545,1.418-1.108,2.123-1.674-.215-.126-.468-.274-.719-.41-.374-.206-.758-.393-1.129-.574l-.032-.016-.02-.01-.008,0c-.038-.02-.109-.058-.191-.095l.15.039a2.038,2.038,0,0,0-.331-.119c.042.021.1.042.14.059l-.044-.014-.046-.015c-1.189-.415-2.265-.742-3.29-1-2.909,3.934-5.978,7.924-9.119,11.858a28.153,28.153,0,0,0-5.738-.651,23.331,23.331,0,0,0-2.382.123l-.02-.01C4855.343-349.255,4855.14-349.259,4854.94-349.259Zm-26.669,28.729c-.325.3-.661.6-.987.886l0,0-.093.083-.256.226c-.159.139-.32.271-.479.391.1.3.222.626.38,1.04.414-.7.81-1.444,1.158-2.1Zm52.728-2.9h0c-1.35,1.665-2.832,3.4-4.529,5.291.3-.17.572-.317.84-.451a5.656,5.656,0,0,1,2.25-.6l.024-.071c.448-1.29.956-2.752,1.415-4.17Zm-58.566-10.027c.009.057.018.117.018.117h.01l.15.93c1.755-2.978,3.723-5.856,5.241-8.03-1.461,1.438-2.935,2.913-4.36,4.34l-.067.067-.915.916-.208.208c.008.177.027.362.043.526l.007.074c.008.041.023.212.039.393v.008l.01.109a.27.27,0,0,0,.011.07v.14a.8.8,0,0,0,.018.151s0,0,0-.019Zm32.248-28.463h0c-.415.7-.893,1.39-1.355,2.055l-.013.019c-.148.212-.3.424-.44.636l-.318.463-.062.091-.21.306c1.612-1.367,3.069-2.534,4.451-3.571h-2.05Z" transform="translate(-4778 383)" fill="#fff"/>
    <path id="Tracciato_48728" data-name="Tracciato 48728" d="M44.43,49.53q0,.1-.02-.12a.2.2,0,0,1,.01.05.148.148,0,0,0,.01.07Z" fill="#e6292d"/>
    <path id="Tracciato_48729" data-name="Tracciato 48729" d="M44.42,43.18a1.443,1.443,0,0,1-.04.21c.01-.04.01-.09.02-.13a.12.12,0,0,1,.02-.08Z" fill="#e6292d"/>
    <path id="Tracciato_48730" data-name="Tracciato 48730" d="M44.42,43.18v-.02S44.43,43.14,44.42,43.18Z" fill="#e6292d"/>
    <path id="Tracciato_48731" data-name="Tracciato 48731" d="M45.41,39.59s.03-.07.05-.11a.308.308,0,0,1-.05.12h0Z" fill="#e6292d"/>
    <path id="Tracciato_48732" data-name="Tracciato 48732" d="M45.57,39.21a.393.393,0,0,1-.02.06.726.726,0,0,1-.06.14c0,.01-.01.02-.01.03a.076.076,0,0,1-.02.04.108.108,0,0,1,.02-.07l.03-.06c.01-.02.02-.03.02-.05C45.55,39.25,45.56,39.23,45.57,39.21Z" fill="#e6292d"/>
    <path id="Tracciato_48733" data-name="Tracciato 48733" d="M48.92,33.7a.591.591,0,0,1-.05.08.555.555,0,0,0-.06.08l-.03.03c-.07.08-.11.13-.13.15a1.837,1.837,0,0,1,.27-.34Z" fill="#e6292d"/>
    <path id="Tracciato_48734" data-name="Tracciato 48734" d="M47.07,67.85a1.221,1.221,0,0,1-.13.18C46.99,67.96,47.03,67.9,47.07,67.85Z" fill="#e6292d"/>
    <path id="Tracciato_48735" data-name="Tracciato 48735" d="M56.33,26.23a.147.147,0,0,1-.04.02,1.148,1.148,0,0,0,.1-.08c-.01.02-.03.03-.05.05h-.01Z" fill="#e6292d"/>
    <path id="Tracciato_48736" data-name="Tracciato 48736" d="M61.23,23.36l-.14.08h-.01a.147.147,0,0,1-.04.02C60.54,23.64,61.12,23.39,61.23,23.36Z" fill="#e6292d"/>
    <path id="Tracciato_48737" data-name="Tracciato 48737" d="M90.12,93.99c-.12.15-.24.31-.36.46q-.48.615-.99,1.23c.24-.53.48-1.06.71-1.6a3.4,3.4,0,0,1,.64-.09Z" fill="#e6292d"/>
    <path id="Tracciato_48738" data-name="Tracciato 48738" d="M93.04,85.86a.123.123,0,0,0-.02.05h-.01C93.02,85.89,93.03,85.88,93.04,85.86Z" fill="#e6292d"/>
    <path id="Tracciato_48739" data-name="Tracciato 48739" d="M98.37,23.52s-.07-.02-.15-.04a.109.109,0,0,1-.04-.02c-.05-.02-.1-.04-.14-.06A1.979,1.979,0,0,1,98.37,23.52Z" fill="#e6292d"/>
    <path id="Tracciato_48740" data-name="Tracciato 48740" d="M107.25,36.44v-.02a.735.735,0,0,0-.04-.26C107.3,36.22,107.36,37.02,107.25,36.44Z" fill="#e6292d"/>
  </g>
</svg>
