<svg xmlns="http://www.w3.org/2000/svg" xmlns:xlink="http://www.w3.org/1999/xlink" width="278" height="97" viewBox="0 0 278 97">
  <defs>
    <clipPath id="clip-path">
      <rect id="Rettangolo_2531" data-name="Rettangolo 2531" width="278" height="97" transform="translate(0 -0.128)" fill="#e52527"/>
    </clipPath>
    <clipPath id="clip-path-2">
      <rect id="Rettangolo_1563" data-name="Rettangolo 1563" width="246.752" height="56.342" fill="#e52527"/>
    </clipPath>
  </defs>
  <g id="logo" transform="translate(0 0.128)" clip-path="url(#clip-path)">
    <g id="Raggruppa_7374" data-name="Raggruppa 7374" transform="translate(15.725 20.171)">
      <g id="Raggruppa_5176" data-name="Raggruppa 5176" clip-path="url(#clip-path-2)">
        <path id="Tracciato_38008" data-name="Tracciato 38008" d="M12.825,12.488c-3.466-1.025-4.986-1.631-4.986-3.451,0-1.555,1.447-2.237,3.5-2.237,2.626,0,4.3,1.251,4.6,3.337h6.927C22.68,4.639,17.694,1.3,11.341,1.3,5.481,1.3.838,3.611.838,9.527c0,4.854,4.224,6.674,8.942,8.115,3.77,1.137,6.469,1.744,6.469,4.057,0,1.4-1.294,2.427-3.843,2.427-3.083,0-5.481-1.175-5.481-4.323H0c0,6.221,5.367,9.824,12.482,9.824,6.81,0,10.769-3.375,10.769-8.57,0-5.612-5.29-7.053-10.427-8.569" transform="translate(0 -1.036)" fill="#e52527"/>
        <path id="Tracciato_38009" data-name="Tracciato 38009" d="M133.516,1.3c-8.638,0-13.472,5.991-13.472,14.144,0,8.19,4.833,14.181,13.472,14.181,8.562,0,13.471-5.99,13.471-14.181,0-8.153-4.909-14.144-13.471-14.144m0,22.752c-4.986,0-6.469-3.868-6.469-8.607,0-4.7,1.484-8.57,6.469-8.57,4.947,0,6.469,3.868,6.469,8.57,0,4.74-1.52,8.607-6.469,8.607" transform="translate(-95.425 -1.035)" fill="#e52527"/>
        <path id="Tracciato_38010" data-name="Tracciato 38010" d="M276.457,4.272H264.394V31.383h12.444c7.573,0,11.759-4.816,11.759-13.537s-4.566-13.575-12.14-13.575m-.837,21.538h-4.378V9.846h4.378c4.262,0,5.975,3.072,5.975,8s-1.712,7.965-5.975,7.965" transform="translate(-210.171 -3.398)" fill="#e52527"/>
        <path id="Tracciato_38011" data-name="Tracciato 38011" d="M416.677,12.09a9.175,9.175,0,0,0-.431-2.271c-.294-.694-.486-1.431-.719-2.149a5,5,0,0,0-1.308-2.144c-.5-.479-1.021-.936-1.507-1.428a8.019,8.019,0,0,0-3.591-1.929c-1.353-.4-2.736-.689-4.1-1.063a7.2,7.2,0,0,0-2.99-.125c-.563.083-1.135.106-1.695.206-.42.075-.834.177-1.254.24-.154.022-.322-.066-.476-.045a13.7,13.7,0,0,0-1.667.286,10.626,10.626,0,0,0-1.161.5c-.576.232-1.184.4-1.734.677a6.034,6.034,0,0,0-1.785,1.144,10.15,10.15,0,0,1-1.016.969,3.663,3.663,0,0,0-1.421,3.089,1.367,1.367,0,0,0,.768,1.267,12.084,12.084,0,0,0,1.679.608,14.136,14.136,0,0,0,2.979.225c1.293-.835,1.723-1.592,3.044-2.379a7.988,7.988,0,0,1,3.135-1.16,2.593,2.593,0,0,1,1.74.307,2.532,2.532,0,0,1,1.07,1.015c.289.577.341.238.426.854a.434.434,0,0,1-.091.3,3.222,3.222,0,0,1-.7.773,13.757,13.757,0,0,1-1.966,1.027c-.912.379-1.86.675-2.792,1.008-.218.078-.436.155-.65.243a11.606,11.606,0,0,1-1.484.627c-.695.187-1.428.237-2.128.4a11.161,11.161,0,0,0-1.419.506,8.154,8.154,0,0,0-.894.406,10.679,10.679,0,0,0-1.536.885,5.88,5.88,0,0,0-.926,1.082,5.909,5.909,0,0,0-1.155,3.66c-.015.724-.04,1.448-.047,2.171a1.732,1.732,0,0,0,.082.465,4.529,4.529,0,0,0,.171.507,8.073,8.073,0,0,0,.561,1.369,8.6,8.6,0,0,0,2.786,2.715,4.266,4.266,0,0,0,2.083.608c.566.029,1.13.1,1.7.157.073.007.148,0,.221.007a2.874,2.874,0,0,1,.714.1,7.486,7.486,0,0,0,2.53.37,21.071,21.071,0,0,0,2.72-.243c.329-.034.655-.093.983-.141,0,.018.009.034.013.052.6-.148,1.191-.289,1.784-.444.632-.166,1.277-.3,1.885-.526s1.172-.494,1.757-.743a15.99,15.99,0,0,1,2.424,1.43c1.4.894,2.986.441,4.5.443.243,0,.491-.473.736-.73.024-.074.046-.147.07-.221q.036-5.025.07-10.053c0-.021.011-.043.015-.065a6.472,6.472,0,0,0,.154-1.186c.006-.63-.049-1.26-.075-1.89a16.4,16.4,0,0,0-.079-1.763m-11.79,6.141a7.28,7.28,0,0,1-.747,1.839,4.491,4.491,0,0,1-2.385,1.94,6.116,6.116,0,0,1-2.615.318c-.344-.006-.688-.007-1.034-.018a1.89,1.89,0,0,1-1.178-.466,1.577,1.577,0,0,1-.372-1.664c.164-.763.759-1.15,1.264-1.622a1.887,1.887,0,0,1,.469-.227c.226-.11.517-.1.608-.444.029-.113.25-.2.4-.257.547-.214,1.09-.426,1.645-.608a3.957,3.957,0,0,1,1.041-.232,3.287,3.287,0,0,0,1.243-.256c.311-.14.632-.258.952-.379a.817.817,0,0,1,.957.7,3.879,3.879,0,0,1-.247,1.383" transform="translate(-309.127 -0.702)" fill="#e52527"/>
        <path id="Tracciato_38012" data-name="Tracciato 38012" d="M569.32,5.594c-.313-2.4-1.626-4.439-4.337-4.874a50.224,50.224,0,0,0-6.269-.3,3.836,3.836,0,0,0-3.73,2.047c-.959,1.74-1.851,3.513-2.771,5.272a33.444,33.444,0,0,1-1.312,3.429c-.291.579-1.057,1.45-1.412,1.371a2.655,2.655,0,0,1-1.7-1.408c-.96-2.611-1.712-5.29-2.578-7.937-.067-.2-.15-.4-.237-.6-.034-.092-.066-.187-.1-.273a5.47,5.47,0,0,0-.376-.73c-.045-.094-.092-.188-.136-.283-.019-.013-.037-.022-.056-.034-.1-.166-.2-.331-.3-.5-2.34-1.288-4.945-.575-7.44-.538-.4.006-.8.716-1.2,1.1-.035.109-.072.219-.108.33l.2,19.352.069-.061q0,2.394-.01,4.79c.065.122.13.243.194.368a5.172,5.172,0,0,0,.712.8c1.419,1.073,2.858.761,4.348.083a2.227,2.227,0,0,0,1.323-2.475,15.836,15.836,0,0,1,.018-2.592c.055-.48.293-1.242.608-1.33a1.38,1.38,0,0,1,1.885.79,31.826,31.826,0,0,0,1.677,3.547c.622,1.166,1.321,2.3,2.93,2.363,2.572.1,3.429-.324,4.3-2.182.553-1.191,1-2.437,1.646-3.575.243-.426,1.063-.955,1.385-.838a2.318,2.318,0,0,1,1.044,1.377,8.108,8.108,0,0,1,.072,1.667c.4,3.36,1.728,4.226,4.8,3.758,1.845-.282,3.515.033,5.212-.761,1.9-.894,2.181-2.777,2.1-4.864-.052-1.358.036-12.509-.458-16.3" transform="translate(-425.491 0)" fill="#e52527"/>
        <path id="Tracciato_38013" data-name="Tracciato 38013" d="M943.807,21.02c.669-.311,3.071-.019,5.269-2.549a5.55,5.55,0,0,0,1.14-3.238c-.022-1.081-.09-1.119-.145-2.207a28.378,28.378,0,0,0-.859-3.761,3.176,3.176,0,0,0-.317-.876c-.45-.793-1.062-1.077-1.574-1.837a1.727,1.727,0,0,0-.572-.5A13.4,13.4,0,0,0,943.474,4.5c-.286-.035-.572-.069-.851-.122a16.7,16.7,0,0,0-3.234-.288h-1.365a2.377,2.377,0,0,1-.391.065c-1.366,0-2.736,0-4.1,0a4.6,4.6,0,0,0-.581.036c-.383.061-.76.176-1.145.223-.35.043-.708.029-1.061.053-.23.017-.461.077-.69.086a17.4,17.4,0,0,0-3.709.464c-.661.193-1.353.282-2.023.446a1.058,1.058,0,0,0-.483.273,2.488,2.488,0,0,0-.98,1.687c-.022.579.047,2.308.106,3.483.028.569-.061,1.144-.055,1.716a28.655,28.655,0,0,0,.318,5.811,19.475,19.475,0,0,1,.336,3.572c.026.937-.129,1.877-.176,2.817a4.241,4.241,0,0,0,.025.6,5.671,5.671,0,0,0-.061,1.794,9.571,9.571,0,0,0,.5,2.8,1.448,1.448,0,0,0,1.21.888,13.2,13.2,0,0,0,3.859-.019c.664-.122.568-.37.86-.6l.148-.232q.523-2.95,1.048-5.9c.033.022.067.044.1.07.061.049.119.133.182.139.711.078.944.787,1.476,1.118s.8,1.087,1.3,1.459a4.973,4.973,0,0,1,1.581,1.855c.392.829,2.812,1.955,3.672,1.984,1.216.041,3.4-.061,4.017-.053a31.852,31.852,0,0,0,5.031-.173,1.174,1.174,0,0,0,.921-1.824,11.7,11.7,0,0,0-1.034-1.335c-.751-.81-1.544-1.581-2.311-2.378-.6-.624-1.2-1.252-1.785-1.9a6.407,6.407,0,0,1-.681-.924.833.833,0,0,1,.351-1.18m-3.686-6.09c-1.7.2-5.116.36-5.12.313H933.22c-2.531,0-3.013-.576-3.034-3.131a1.7,1.7,0,0,1,1.554-1.893c2.933-.243,5.887-.389,8.829-.337a2.161,2.161,0,0,1,2.266,2.371,3.119,3.119,0,0,1-2.715,2.675" transform="translate(-733.596 -3.256)" fill="#e52527"/>
        <path id="Tracciato_38014" data-name="Tracciato 38014" d="M1092.38,11.8a5.094,5.094,0,0,0-.124-.52,8.052,8.052,0,0,0-.439-1.414,8.585,8.585,0,0,0-2.531-2.951,4.271,4.271,0,0,0-2.021-.79c-.561-.08-1.115-.2-1.675-.308-.072-.014-.147-.011-.219-.026a2.97,2.97,0,0,1-.7-.16,7.418,7.418,0,0,0-2.486-.593,20.985,20.985,0,0,0-2.73,0c-.331,0-.662.035-.992.054a.3.3,0,0,0-.009-.053c-.608.094-1.212.182-1.817.285a19.088,19.088,0,0,0-1.926.355c-.912.248-1.794.626-2.715.842a8.974,8.974,0,0,0-3.317,1.69,22.892,22.892,0,0,0-2.086,1.924,4,4,0,0,0-.712.851,17.149,17.149,0,0,0-1.592,3.741,6.577,6.577,0,0,0-.259,1.169c-.061.627-.065,1.259-.095,1.889a16.676,16.676,0,0,0-.08,1.763,9.121,9.121,0,0,0,.227,2.3c.229.717.356,1.468.522,2.206a5.033,5.033,0,0,0,1.111,2.25c.456.521.933,1.023,1.375,1.556a8,8,0,0,0,3.405,2.24c1.311.515,2.662.93,3.983,1.423a7.21,7.21,0,0,0,2.967.39c.569-.033,1.139,0,1.706-.055.426-.038.847-.1,1.271-.128.154-.009.315.1.47.088a13.949,13.949,0,0,0,1.685-.136,10.457,10.457,0,0,0,1.2-.4c.594-.179,1.216-.289,1.787-.52a6.026,6.026,0,0,0,1.881-.98,10.167,10.167,0,0,1,1.1-.875,3.664,3.664,0,0,0,1.691-2.95,1.366,1.366,0,0,0-.651-1.33,12.075,12.075,0,0,0-1.618-.756,1.82,1.82,0,0,0-1.946.274,1.386,1.386,0,0,1-.24.159c-1.362.715-2.709,1.466-4.094,2.133a7.973,7.973,0,0,1-3.227.875,2.587,2.587,0,0,1-1.7-.46,2.52,2.52,0,0,1-.973-1.106,5.745,5.745,0,0,1-.265-1.844.431.431,0,0,1,.117-.286,3.253,3.253,0,0,1,.764-.71,13.868,13.868,0,0,1,2.05-.848c.943-.3,1.913-.506,2.871-.755.224-.061.449-.115.669-.187a11.782,11.782,0,0,1,1.535-.493c.71-.122,1.444-.108,2.158-.212a11.055,11.055,0,0,0,1.459-.378,8.388,8.388,0,0,0,.928-.325,10.69,10.69,0,0,0,1.609-.745,5.867,5.867,0,0,0,1.014-.995,5.91,5.91,0,0,0,1.479-3.544c.079-.719.17-1.439.243-2.159a1.743,1.743,0,0,0-.04-.47m-7.535,1.5a3.913,3.913,0,0,1-1.382,2.067,2.276,2.276,0,0,1-.547.315c-.262.153-.615.17-.691.589-.026.139-.286.261-.46.345-.638.3-1.277.612-1.932.88a4.84,4.84,0,0,1-1.235.37,3.989,3.989,0,0,0-1.478.416c-.365.2-.741.365-1.115.541a.987.987,0,0,1-1.216-.755,4.678,4.678,0,0,1,.176-1.69,8.807,8.807,0,0,1,.739-2.283,5.431,5.431,0,0,1,2.706-2.548,7.4,7.4,0,0,1,3.128-.612c.416-.022.831-.052,1.247-.067a2.281,2.281,0,0,1,1.463.459,1.91,1.91,0,0,1,.595,1.975" transform="translate(-845.669 -3.971)" fill="#e52527"/>
        <path id="Tracciato_38015" data-name="Tracciato 38015" d="M743.592,1.507a42.133,42.133,0,0,0-16.123.069,11.562,11.562,0,0,1-4.546-.141c-1.773-.35-10.6,3.092-10.6,7.661h.022c0,4.51,1.628,12.465,2.9,14.9.608,1.161,3.026,2.137,4.49,2.619,2.371.78,2.973-.421,5.384.263a21.166,21.166,0,0,0,8.134.577,20.405,20.405,0,0,1,5.712-.075c4.435.753,8.629,1.212,12.155-1.025,2.245-1.6,2.351-4.84,2.032-6.932a21.634,21.634,0,0,0,.343-3.725c.19-2.119.467-3.811-.243-5.387-1.93-4.3-4.669-7.867-9.658-8.792M743.42,20.6c-.991.944-1.6,1.6-3.142,1.673-2.95-.075-6.068-1.034-9.186-.713a16.387,16.387,0,0,1-7.2-.777,4.35,4.35,0,0,1-2.478-1.916,10.05,10.05,0,0,1-.661-8.368c.521-1.52,1.935-2.159,3.393-2.554a30.942,30.942,0,0,1,7.18-.912A40.76,40.76,0,0,1,741.1,8.61a2.328,2.328,0,0,1,1.668,1.436c.781,1.923.426,3.429.969,5.444.547,2.042.642,3.834-.321,5.112" transform="translate(-566.236 -0.607)" fill="#e52527"/>
        <path id="Tracciato_38016" data-name="Tracciato 38016" d="M14.878,185.911v13.4H12.9v-1.106h-.036a3.6,3.6,0,0,1-2.936,1.386c-2.464,0-4.289-1.912-4.289-5.06s1.824-5.062,4.289-5.062a3.426,3.426,0,0,1,2.936,1.424H12.9V185.91Zm-2,8.623c0-2.138-1-3.449-2.615-3.449-1.73,0-2.653,1.574-2.653,3.449s.922,3.449,2.653,3.449c1.619,0,2.615-1.332,2.615-3.449" transform="translate(-4.484 -147.92)" fill="#e52527"/>
        <path id="Tracciato_38017" data-name="Tracciato 38017" d="M67.158,203.579v1.856h-.039a2.847,2.847,0,0,0-3.423,3v4.893H61.72v-9.579H63.7v1.8h.036a2.782,2.782,0,0,1,2.559-2.024,6.014,6.014,0,0,1,.867.056" transform="translate(-49.062 -161.934)" fill="#e52527"/>
        <path id="Tracciato_38018" data-name="Tracciato 38018" d="M96.229,187.475a1.122,1.122,0,1,1,1.11,1.05,1.06,1.06,0,0,1-1.11-1.05m2.11,12.242H96.362v-9.579h1.977Z" transform="translate(-76.493 -148.323)" fill="#e52527"/>
        <path id="Tracciato_38019" data-name="Tracciato 38019" d="M126.537,206.557v6.617h-1.994V207.12c0-1.294-.547-2.119-1.9-2.119a2.271,2.271,0,0,0-2.5,2.344v5.83h-1.977v-9.58h1.977v1.235h.036a3.639,3.639,0,0,1,3.162-1.5,2.968,2.968,0,0,1,3.2,3.223" transform="translate(-93.931 -161.78)" fill="#e52527"/>
        <path id="Tracciato_38020" data-name="Tracciato 38020" d="M171.635,185.91v7.667l3.913-3.843h2.427l-3.648,3.561,4.046,6.02H176l-3.029-4.724-1.338,1.256v3.466h-1.977v-13.4Z" transform="translate(-134.864 -147.92)" fill="#e52527"/>
        <path id="Tracciato_38021" data-name="Tracciato 38021" d="M240.043,204.944c-1.938,0-2.767,1.649-2.767,3.449s.809,3.449,2.767,3.449a2.23,2.23,0,0,0,2.389-2.23h1.975a4.105,4.105,0,0,1-4.364,3.842c-2.88,0-4.743-2.062-4.743-5.06s1.861-5.062,4.722-5.062a4.15,4.15,0,0,1,4.383,3.77h-1.975a2.227,2.227,0,0,0-2.389-2.155" transform="translate(-187.043 -161.78)" fill="#e52527"/>
        <path id="Tracciato_38022" data-name="Tracciato 38022" d="M296.256,192.7v6.617h-1.994v-6.052c0-1.294-.547-2.119-1.919-2.119a2.295,2.295,0,0,0-2.483,2.344v5.83h-1.977V185.91h1.977v5.06h.036a3.614,3.614,0,0,1,3.123-1.5,2.979,2.979,0,0,1,3.237,3.223" transform="translate(-228.843 -147.92)" fill="#e52527"/>
        <path id="Tracciato_38023" data-name="Tracciato 38023" d="M344.13,210.255h1.975a4.208,4.208,0,0,1-4.383,3.2c-2.992,0-4.816-2.062-4.816-5.06,0-3.111,1.824-5.062,4.722-5.062,3.1,0,4.628,2.156,4.628,5.567h-7.375a2.747,2.747,0,0,0,2.784,2.945,2.38,2.38,0,0,0,2.466-1.593m-5.25-2.812h5.4a2.48,2.48,0,0,0-2.653-2.55,2.56,2.56,0,0,0-2.747,2.55" transform="translate(-267.813 -161.785)" fill="#e52527"/>
        <path id="Tracciato_38024" data-name="Tracciato 38024" d="M415.755,210.478c0,1.837-1.581,2.979-3.915,2.979-3.1,0-4.439-1.442-4.533-3.466h1.919c.094,1.034.547,1.912,2.577,1.912,1.374,0,1.955-.676,1.955-1.277,0-1.2-1.146-1.294-2.559-1.632-1.524-.355-3.593-.657-3.593-2.83,0-1.576,1.392-2.831,3.8-2.831,2.615,0,3.857,1.405,3.987,3.075h-1.918c-.131-.75-.509-1.52-2.052-1.52-1.185,0-1.824.449-1.824,1.125,0,.973,1.073,1.048,2.464,1.367,1.768.413,3.689.806,3.689,3.094" transform="translate(-323.776 -161.784)" fill="#e52527"/>
        <path id="Tracciato_38025" data-name="Tracciato 38025" d="M458.745,204.895c-1.581,0-2.163.486-2.256,1.724h-1.921c.094-1.837,1.281-3.283,4.177-3.283,2.128,0,3.709.806,3.709,3.355v4.555c0,.676.15,1.034.923.956v.937a2.991,2.991,0,0,1-1.148.207c-1.054,0-1.543-.375-1.73-1.313h-.039a3.753,3.753,0,0,1-3.179,1.425c-1.957,0-3.162-1.123-3.162-2.736,0-2.1,1.562-2.756,3.971-3.223,1.485-.28,2.389-.469,2.389-1.388,0-.693-.414-1.216-1.732-1.216m1.732,4.647V208.1a6.636,6.636,0,0,1-2.013.637c-1.637.355-2.352.824-2.352,1.8,0,.881.528,1.369,1.6,1.369,1.637,0,2.767-.806,2.767-2.363" transform="translate(-360.986 -161.785)" fill="#e52527"/>
        <path id="Tracciato_38026" data-name="Tracciato 38026" d="M515.083,206.557v6.617h-1.994V207.12c0-1.294-.547-2.119-1.9-2.119a2.271,2.271,0,0,0-2.5,2.344v5.83H506.71v-9.58h1.977v1.235h.036a3.639,3.639,0,0,1,3.162-1.5,2.968,2.968,0,0,1,3.2,3.223" transform="translate(-402.793 -161.78)" fill="#e52527"/>
        <path id="Tracciato_38027" data-name="Tracciato 38027" d="M566.575,206.557v6.617h-1.994V207.12c0-1.294-.547-2.119-1.9-2.119a2.271,2.271,0,0,0-2.5,2.344v5.83H558.2v-9.58h1.977v1.235h.037a3.638,3.638,0,0,1,3.162-1.5,2.968,2.968,0,0,1,3.2,3.223" transform="translate(-443.724 -161.78)" fill="#e52527"/>
        <path id="Tracciato_38028" data-name="Tracciato 38028" d="M612.053,213.458c-3.009,0-4.834-2.079-4.834-5.06s1.824-5.062,4.834-5.062,4.836,2.081,4.836,5.062-1.824,5.06-4.836,5.06m0-1.611c1.885,0,2.858-1.482,2.858-3.449,0-1.987-.978-3.449-2.858-3.449s-2.858,1.462-2.858,3.449c0,1.968.978,3.449,2.858,3.449" transform="translate(-482.689 -161.784)" fill="#e52527"/>
        <path id="Tracciato_38029" data-name="Tracciato 38029" d="M688.974,185.911v13.4H687v-1.106h-.036a3.6,3.6,0,0,1-2.936,1.386c-2.464,0-4.289-1.912-4.289-5.06s1.824-5.062,4.289-5.062a3.426,3.426,0,0,1,2.936,1.424H687V185.91Zm-2,8.623c0-2.138-1-3.449-2.615-3.449-1.73,0-2.653,1.574-2.653,3.449s.923,3.449,2.653,3.449c1.618,0,2.615-1.332,2.615-3.449" transform="translate(-540.334 -147.92)" fill="#e52527"/>
        <path id="Tracciato_38030" data-name="Tracciato 38030" d="M735.814,187.578a1.122,1.122,0,1,1,1.119,1.048,1.123,1.123,0,0,1-1.119-1.048m2.108,12.241h-1.975v-9.578h1.975Z" transform="translate(-584.911 -148.427)" fill="#e52527"/>
        <path id="Tracciato_38031" data-name="Tracciato 38031" d="M778.993,204.895c-1.581,0-2.163.486-2.256,1.724h-1.921c.094-1.837,1.281-3.283,4.177-3.283,2.128,0,3.709.806,3.709,3.355v4.555c0,.676.151,1.034.923.956v.937a2.991,2.991,0,0,1-1.148.207c-1.054,0-1.543-.375-1.73-1.313h-.039a3.753,3.753,0,0,1-3.179,1.425c-1.957,0-3.162-1.123-3.162-2.736,0-2.1,1.563-2.756,3.971-3.223,1.485-.28,2.389-.469,2.389-1.388,0-.693-.414-1.216-1.732-1.216m1.732,4.647V208.1a6.638,6.638,0,0,1-2.014.637c-1.638.355-2.352.824-2.352,1.8,0,.881.528,1.369,1.6,1.369,1.638,0,2.767-.806,2.767-2.363" transform="translate(-615.556 -161.785)" fill="#e52527"/>
        <path id="Tracciato_38032" data-name="Tracciato 38032" d="M840.505,206.555v6.617h-2v-6.055c0-1.294-.263-2.119-1.616-2.119a2.106,2.106,0,0,0-2.165,2.344v5.83h-1.994v-6.055c0-1.294-.262-2.119-1.636-2.119a2.114,2.114,0,0,0-2.163,2.344v5.83h-1.977v-9.58h1.977v1.235h.036a3.334,3.334,0,0,1,2.861-1.5,2.481,2.481,0,0,1,2.559,1.649h.037a3.8,3.8,0,0,1,3.142-1.649c1.938,0,2.936,1.163,2.936,3.223" transform="translate(-657.363 -161.778)" fill="#e52527"/>
        <path id="Tracciato_38033" data-name="Tracciato 38033" d="M906.149,213.458c-3.01,0-4.835-2.079-4.835-5.06s1.824-5.062,4.835-5.062,4.835,2.081,4.835,5.062-1.824,5.06-4.835,5.06m0-1.611c1.882,0,2.858-1.482,2.858-3.449,0-1.987-.979-3.449-2.858-3.449s-2.858,1.462-2.858,3.449c0,1.968.978,3.449,2.858,3.449" transform="translate(-716.47 -161.784)" fill="#e52527"/>
        <path id="Tracciato_38034" data-name="Tracciato 38034" d="M962.466,203.579v1.856h-.038a2.847,2.847,0,0,0-3.423,3v4.893h-1.976v-9.578H959v1.8h.037a2.782,2.782,0,0,1,2.559-2.024,6.01,6.01,0,0,1,.866.056" transform="translate(-760.758 -161.934)" fill="#e52527"/>
        <path id="Tracciato_38035" data-name="Tracciato 38035" d="M996.293,210.255h1.975a4.21,4.21,0,0,1-4.383,3.2c-2.992,0-4.816-2.062-4.816-5.06,0-3.111,1.824-5.062,4.722-5.062,3.1,0,4.628,2.156,4.628,5.567h-7.376a2.747,2.747,0,0,0,2.784,2.945,2.381,2.381,0,0,0,2.466-1.593m-5.25-2.812h5.4a2.481,2.481,0,0,0-2.653-2.549,2.559,2.559,0,0,0-2.747,2.549" transform="translate(-786.227 -161.785)" fill="#e52527"/>
        <path id="Tracciato_38036" data-name="Tracciato 38036" d="M1098.86,159.974a3.611,3.611,0,0,0-2.719,1.034,27.976,27.976,0,0,0-4.646,6.81,9.681,9.681,0,0,0-4.351-5.148c-2.767-1.3-6.5.649-7.813,2.936-1.707,2.975-.219,6.688,1.817,9.214,2.467,3.064,5.885,5.559,8.93,8.135-.049.038-.1.078-.146.117-.482.37-.262.537.263.518a3.847,3.847,0,0,0,1.681-.608,18.846,18.846,0,0,0,8.045-11.114,22.335,22.335,0,0,0,1.19-6.337c-.026-1.537-.208-5-2.25-5.561M1088.1,167.1q.461.763.865,1.557a9.565,9.565,0,0,0-1.363.7c.189-.752.357-1.506.5-2.26m-6.463,2.027a4.323,4.323,0,0,1,1.561-4.609c-.022.017.867-.535.741-.629a4.252,4.252,0,0,1,.6.036l-2.846,5.379c-.016-.061-.038-.117-.052-.176m3.075,1.552q-.392,1.47-.786,2.939a14.193,14.193,0,0,1-.955-1.367,1.139,1.139,0,0,0,.224-.27q.923-1.66,1.995-3.238c-.136.646-.3,1.29-.479,1.935m1.453,5.337c-.19-.176-.376-.356-.561-.538a2.323,2.323,0,0,0,.918-.7q.389-.554.781-1.1-.273,1.389-.677,2.757c-.155-.14-.31-.277-.462-.419m2.833,2.468c-.62-.514-1.233-1.034-1.832-1.563a5.874,5.874,0,0,0,.741-.174,3.958,3.958,0,0,0,1.706-.865c-.186.871-.4,1.737-.615,2.6m2.305,1.87-.758-.608a5.262,5.262,0,0,0,.951-.465c-.056.358-.122.716-.193,1.073m1.932-5.551c-.415.093-.855.209-1.277.334q.179-.806.316-1.618c.383-.167.644-.328.688-.457a25.318,25.318,0,0,1,3.082-6.065c-.877,2.615-1.8,5.22-2.808,7.806" transform="translate(-857.386 -127.252)" fill="#e52527"/>
      </g>
    </g>
  </g>
</svg>
