<?xml version="1.0" encoding="UTF-8"?><svg id="Livello_1" xmlns="http://www.w3.org/2000/svg" viewBox="0 0 153.07 153.07"><defs><style>.cls-1{fill:#fff;}.cls-2{fill:#e6292d;}</style></defs><path class="cls-2" d="M44.34,43.59s0-.06.02-.09c-.01.02-.01.05-.01.07,0,0,0,0,0,.02Z"/><path class="cls-2" d="M44.42,43.18s-.01.1-.04.21c.01-.04.01-.09.02-.13,0-.03,0-.05.02-.08Z"/><path class="cls-2" d="M44.42,43.18v-.02s.01-.02,0,.02Z"/><path class="cls-2" d="M45.41,39.59s.03-.07.05-.11c-.01.04-.02.08-.05.12h0Z"/><path class="cls-2" d="M45.57,39.21s-.01.04-.02.06c-.01.04-.03.08-.06.14,0,.01-.01.02-.01.03s-.01.03-.02.04c0-.02,0-.04.02-.07.01-.02.02-.04.03-.06s.02-.03.02-.05c.02-.05.03-.07.04-.09Z"/><path class="cls-2" d="M48.92,33.7s-.02.04-.05.08c-.02.02-.04.05-.06.08-.01.01-.02.02-.03.03-.07.08-.11.13-.13.15.02-.05.23-.32.27-.34Z"/><path class="cls-2" d="M56.33,26.23s-.03.02-.04.02c.04-.03.08-.06.1-.08-.01.02-.03.03-.05.05h-.01Z"/><path class="cls-2" d="M61.23,23.36s-.07.04-.14.08h-.01s-.03.02-.04.02c-.5.18.08-.07.19-.1Z"/><path class="cls-2" d="M83.05,86.92s.01-.03.03-.04t-.01.02s-.02.01-.02.02Z"/><path class="cls-2" d="M83.82,81.52s-.05.08-.1.12c.01-.01.02-.02.03-.04.02-.02.04-.05.07-.08Z"/><path class="cls-2" d="M83.93,81.38s-.05.07-.08.11c0,.01-.02.02-.03.03.01,0,.01-.02.01-.02.02-.03.04-.05.06-.07.01-.02.03-.04.04-.05Z"/><path class="cls-2" d="M90.12,93.99c-.12.15-.24.31-.36.46-.32.41-.65.82-.99,1.23.24-.53.48-1.06.71-1.6.21-.05.42-.08.64-.09Z"/><path class="cls-2" d="M93.04,85.86s-.02.03-.02.05h-.01s0,0,0,0c.01-.02.02-.03.03-.05Z"/><path class="cls-2" d="M107,17.07c-7.15-5.34-16.74-5.72-25.31-5.93-9.5-.22-19.59-.03-28.05,4.9-4.2,2.44-7.88,5.98-11.01,9.67-3.21,3.77-5.94,7.95-7.36,12.73-2.95,9.91.68,20.89,4.24,30.17,3.59,9.36,8.2,18.28,13.2,26.96,5.12,8.9,10.54,17.62,16.23,26.17,1.43,2.14,2.88,4.28,4.34,6.4.49.7,1.13,1.3,1.86,1.74.36.94,1.02,1.76,2.05,2.3,2.19,1.16,5.69.75,6.84-1.79,8.58-18.95,17.53-37.8,24.8-57.3,1.77-4.76,3.43-9.56,4.94-14.41,1.61-5.16,2.96-10.37,3.47-15.76.9-9.75-2.2-19.84-10.24-25.85ZM106.54,33.18c.04.17.08.33.12.49.24.88.4,1.77.57,2.66.01.03.01.06.02.09-.01-.13-.02-.25-.04-.26.09.06.15.86.04.28.01.13.01.27.02.3.02.2.03.41.05.61-.24.15-.47.31-.69.49-7.31,5.75-13.92,12.31-20.66,18.71-.96.91-1.92,1.82-2.89,2.72,5.33-6.33,10.69-12.63,16.31-18.7,2.33-2.52,4.71-4.99,7.15-7.39ZM103,59.57c-.46,1.42-.95,2.83-1.44,4.24-.75.03-1.52.24-2.25.6-.28.14-.56.29-.84.45,1.55-1.73,3.07-3.49,4.53-5.29ZM98.37,23.52s-.07-.02-.15-.04c.11.05.2.1.22.11.39.19.78.38,1.16.59.24.13.48.27.72.41-.81.65-1.62,1.28-2.44,1.92-1.01.79-2.03,1.58-3.05,2.37-.11.09-.62.49-.81.64-.06.04-.08.06-.08.06-.58.45-1.15.89-1.73,1.33-3.18,2.43-6.38,4.84-9.63,7.18.71-.84,1.4-1.68,2.08-2.53,3.47-4.31,6.85-8.68,10.14-13.13,1.11.28,2.2.62,3.29,1,.03.01.06.02.09.03-.05-.02-.1-.04-.14-.06.11.03.28.09.33.12ZM78.73,21.08c-1.52,1.14-3,2.34-4.45,3.57.2-.29.39-.57.59-.86.61-.89,1.26-1.78,1.81-2.71.68,0,1.36,0,2.05,0ZM61.23,23.36s-.07.04-.14.08h-.01s-.03.02-.04.02c-.5.18.08-.07.19-.1ZM48.83,65.1c-.13-.34-.26-.69-.38-1.04.16-.12.32-.25.48-.39.45-.4.9-.79,1.34-1.2-.47.88-.93,1.77-1.44,2.63ZM47.07,67.85c-.05.08-.1.15-.13.18.05-.07.09-.13.13-.18ZM48.92,33.7s-.02.04-.05.08c-.02.02-.04.05-.06.08-.01.01-.02.02-.03.03-.07.08-.11.13-.13.15.02-.05.23-.32.27-.34ZM45.41,39.59s.03-.07.05-.11c0-.02,0-.04.02-.07.01-.02.02-.04.03-.06s.02-.03.02-.05c.02-.05.03-.07.04-.09,0,.02-.01.04-.02.06-.01.04-.03.08-.06.14,0,.01-.01.02-.01.03s-.01.03-.02.04c-.01.04-.02.08-.05.12h0ZM44.4,43.26s0-.05.02-.08v-.02s.01-.02,0,.02c0,.03-.01.1-.04.21.01-.04.01-.09.02-.13ZM44.45,49.66s-.01-.07-.02-.13q0,.1-.02-.12s0-.1,0-.14c-.01-.04-.01-.07-.01-.07-.02-.22-.04-.46-.05-.51-.02-.2-.04-.4-.05-.6,1.85-1.85,3.69-3.7,5.55-5.53-1.83,2.62-3.62,5.28-5.24,8.03l-.15-.93ZM61.07,67.64c1.55-1.75,3.13-3.47,4.83-5.08.89-.84,1.81-1.65,2.76-2.44.4-.33.81-.66,1.22-.99.04-.02.07-.05.11-.08.01-.01.02-.02.03-.02.04-.04.1-.08.16-.13.13-.1.26-.19.39-.29-2.29,2.77-4.59,5.53-6.89,8.27-3.07,3.65-6.14,7.31-9.21,10.96-.35-.69-.69-1.38-1.02-2.08,2.72-2.53,5.15-5.34,7.62-8.12ZM59.8,87.82c4.38-1.93,8.48-4.28,12.38-6.91-.8,1.22-1.59,2.46-2.37,3.72-.33.54-.68,1.07-1.04,1.59-.04.06-.18.24-.28.37-.03.05-.06.09-.09.11h0c-.13.15-.26.31-.29.34-.8.88-1.69,1.67-2.61,2.44-1.11.93-2.16,1.83-3.16,2.8-.86-1.48-1.71-2.97-2.54-4.46ZM69.44,104.04c-.53-.84-1.05-1.69-1.57-2.54,2.12-1.15,4.19-2.38,6.22-3.67-1.64,2.01-3.21,4.07-4.65,6.21ZM78.62,118.23c-.83-1.23-1.65-2.46-2.47-3.7,1.94-1.15,3.87-2.34,5.77-3.57-1.1,2.43-2.2,4.85-3.3,7.27ZM83.85,81.49s-.02.02-.03.03c-.02.04-.05.08-.1.12.01-.01.02-.02.03-.04.02-.02.04-.05.07-.08.01,0,.01-.02.01-.02.02-.03.04-.05.06-.07.01-.02.03-.04.04-.05-.01.03-.05.07-.08.11ZM89.76,94.45c-.32.41-.65.82-.99,1.23.24-.53.48-1.06.71-1.6.21-.05.42-.08.64-.09-.12.15-.24.31-.36.46ZM93.02,85.91h-.01s0,0,0,0c.01-.02.02-.03.03-.05,0,.01-.02.03-.02.05Z"/><path class="cls-2" d="M44.43,49.53q0,.1-.02-.12s.01.03.01.05c0,.03,0,.05.01.07Z"/><path class="cls-2" d="M44.42,43.18s-.01.1-.04.21c.01-.04.01-.09.02-.13,0-.03,0-.05.02-.08Z"/><path class="cls-2" d="M44.42,43.18v-.02s.01-.02,0,.02Z"/><path class="cls-2" d="M45.41,39.59s.03-.07.05-.11c-.01.04-.02.08-.05.12h0Z"/><path class="cls-2" d="M45.57,39.21s-.01.04-.02.06c-.01.04-.03.08-.06.14,0,.01-.01.02-.01.03s-.01.03-.02.04c0-.02,0-.04.02-.07.01-.02.02-.04.03-.06s.02-.03.02-.05c.02-.05.03-.07.04-.09Z"/><path class="cls-2" d="M48.92,33.7s-.02.04-.05.08c-.02.02-.04.05-.06.08-.01.01-.02.02-.03.03-.07.08-.11.13-.13.15.02-.05.23-.32.27-.34Z"/><path class="cls-2" d="M47.07,67.85c-.05.08-.1.15-.13.18.05-.07.09-.13.13-.18Z"/><path class="cls-2" d="M56.33,26.23s-.03.02-.04.02c.04-.03.08-.06.1-.08-.01.02-.03.03-.05.05h-.01Z"/><path class="cls-2" d="M61.23,23.36s-.07.04-.14.08h-.01s-.03.02-.04.02c-.5.18.08-.07.19-.1Z"/><path class="cls-2" d="M90.12,93.99c-.12.15-.24.31-.36.46-.32.41-.65.82-.99,1.23.24-.53.48-1.06.71-1.6.21-.05.42-.08.64-.09Z"/><path class="cls-2" d="M93.04,85.86s-.02.03-.02.05h-.01s0,0,0,0c.01-.02.02-.03.03-.05Z"/><path class="cls-2" d="M98.37,23.52s-.07-.02-.15-.04c-.03-.01-.04-.02-.04-.02-.05-.02-.1-.04-.14-.06.11.03.28.09.33.12Z"/><path class="cls-2" d="M107.25,36.44v-.02c-.01-.13-.02-.25-.04-.26.09.06.15.86.04.28Z"/><path class="cls-1" d="M77.54,33.75c-5.3-.16-10.64,1.82-14.54,5.41-2.08,1.91-3.79,4.32-4.5,7.06s-.34,5.82,1.35,8.1c2.32,3.13,6.49,4.15,10.34,4.77,2.66.43,5.33.78,8.01,1.04,2.71.26,5.54.42,8.04-.65,4.73-2.03,6.68-7.66,7.35-12.76.33-2.53.46-5.23-.68-7.52-1.32-2.65-4.17-4.29-7.07-4.88s-5.33-.86-8.28-.56Z"/></svg>