<?xml version="1.0" encoding="UTF-8"?><svg id="antico_vinario" xmlns="http://www.w3.org/2000/svg" viewBox="0 0 100 100"><defs><style>.cls-1{fill:red;}</style></defs><path class="cls-1" d="M0,0v100h100V0H0ZM52.81,71.21h-22.87l1.12-5.55c1.04-.17,4.35.44,4.83-.65.21-.46-.15-4.37-.38-4.53l-13.41-.08c-.23.05-2.05,3.77-2.11,4.13-.07.44.23,1.11.65,1.11h3.42l-.95,5.56H5.95l1.12-5.55c1.39-.1,3.01.34,4.13-.72,6.81-11.26,12.39-23.3,19.03-34.66.24-.4.69-1.41,1.06-1.48h12.79s5.12,35.3,5.12,35.3c.02.66.84,1.55,1.47,1.55h3.1l-.95,5.56ZM93.02,34.2c-2.33.4-3.37-.46-4.82,1.85l-17.93,35.16h-13.23s-3.52-34.38-3.52-34.38c-.02-.8-.48-2.48-1.49-2.48h-3.26l1.11-5.56h22.71l-1.13,5.54c-1.29.3-4.61-.73-4.89,1.06l1.9,24.21,11.52-23.82.05-1.01c-.05-.15-.44-.42-.53-.42h-3.57l1.11-5.56h17l-1.03,5.41Z"/><polygon class="cls-1" points="25.01 54.69 34.86 54.69 32.95 39.44 25.01 54.69"/></svg>