<?xml version="1.0" encoding="UTF-8"?><svg id="signorvino" xmlns="http://www.w3.org/2000/svg" viewBox="0 0 100 100"><defs><style>.cls-1{fill:#8f1a37;}</style></defs><path class="cls-1" d="M0,0v100h100V0H0ZM65.9,81.58c-4.18,4.06-9.32,6.11-15.28,6.11-4.44.04-8.79-1.24-12.5-3.68-3.65-2.4-7.02-6.37-10-11.81-.71-1.3-.27-2.93,1-3.69l5.65-3.39s.07-.04.11-.06c1.34-.73,3.01-.23,3.74,1.11,3.44,6.33,7.27,9.54,11.37,9.54,1.74.01,3.46-.41,4.99-1.24,1.41-.7,2.58-1.79,3.39-3.14.76-1.26,1.16-2.7,1.16-4.17,0-1.67-.58-3.29-1.76-4.97-1.91-2.71-5.54-6.09-10.8-10.06-5.9-4.46-9.37-7.53-10.93-9.67-2.68-3.57-4.05-7.55-4.05-11.8-.03-3.26.82-6.48,2.45-9.3,1.65-2.82,4.04-5.13,6.92-6.67,2.92-1.59,6.2-2.41,9.53-2.39,3.56,0,7.07.92,10.16,2.69,3.1,1.76,6.21,4.82,9.52,9.34.89,1.22.64,2.92-.56,3.83l-5.43,4.11s0,0,0,0c-1.22.92-2.95.68-3.87-.54-2.84-3.76-4.62-5.25-5.61-5.85-1.31-.79-2.82-1.2-4.35-1.19-1.96,0-3.49.55-4.67,1.68-1.13,1.03-1.75,2.5-1.7,4.02,0,1.06.23,2.12.67,3.08.46,1.04,1.38,2.25,2.73,3.6.41.39,2.08,1.79,8.28,6.38h0c6.08,4.49,10.18,8.44,12.53,12.07,2.42,3.76,3.65,7.62,3.65,11.49,0,5.58-2.13,10.47-6.33,14.55Z"/></svg>