<?xml version="1.0" encoding="UTF-8"?><svg id="enilive" xmlns="http://www.w3.org/2000/svg" viewBox="0 0 100 100"><defs><style>.cls-1{fill:#0176d3;}</style></defs><path class="cls-1" d="M73.4,29.81c-.47-.38-1.02-.65-1.61-.79-.59-.13-1.2-.12-1.79.03-1.63.45-2.25,1.53-2.87,2.62-.09.14-.17.28-.25.42-.34.57-.69,1.26-1.08,2.02-.97,1.92-2.16,4.27-3.89,6.11l-.15.14h.03c-.07.07-.1.17,0,.18,1.31-.11,2.57-.57,3.65-1.32,1.11-.66,2.07-1.56,2.8-2.63.92.09,1.85.09,2.77,0,2.03.03,3.71-1.56,3.77-3.59.07-1.22-.44-2.41-1.38-3.19Z"/><path class="cls-1" d="M24.93,24.05h0c.32-.03.62-.18.83-.42.45-.49.45-1.25,0-1.74-.22-.24-.51-.39-.83-.42-.32.03-.62.18-.83.42-.22.24-.34.55-.34.87,0,.67.51,1.22,1.17,1.29Z"/><path class="cls-1" d="M0,0v100h100V0H0ZM66.54,15.34c2.17.09,4.34.32,6.48.69.23.02.44.13.6.3.14.17.22.39.2.61-.03.48-.44.85-.92.82-3.87.06-7.73.4-11.55,1.02-14.63,2.37-19.38,7.1-17.08,9.59,1.68,1.82,6.35,2.91,7.09,2.81.23.01.44.12.59.29.03.03.06.06.08.1.02.04.03.08.03.12-1.45,0-7.54-1.04-9.51-3.56-2.63-3.38-1.9-13.08,23.99-12.81ZM14.03,42.15c.08-.24.15-.48.2-.73.2-1.23.25-2.02.3-2.68.04-1.07.24-2.13.6-3.14-.1-.11-.26.02-.52.23-.88.81-2.09,1.15-3.26.9-.03-.01-.06-.03-.09-.05-.02-.03-.04-.06-.04-.09,0-.03,0-.07.01-.1.01-.03.03-.06.06-.08,1.29-1.07,1.35-2.51,1.41-4,.05-1.12.09-2.27.66-3.3.08-.12.14-.25.19-.38,0-.04,0-.08-.01-.12-.02-.04-.05-.07-.09-.09-.22-.11-.46-.17-.71-.17-.25-.02-.49-.07-.73-.14-.65-.2-1.19-.64-1.52-1.23-.02-.05-.02-.1-.01-.15.02-.05.06-.09.1-.11,1.6-.78,2.48-2.32,3.44-4.02.28-.57.7-1.05,1.22-1.41.52-.36,1.13-.57,1.76-.63.21,0,.21-.16.21-.44-.06-.4-.12-.8-.19-1.23-.15-.86-.3-1.83-.47-3.17-.05-.17,0-.34.11-.47.18-.2.49-.21.69-.02l5.17,3.92c.65.66,2.72-.07,5.47-1.04,1.58-.55,3.38-1.19,5.26-1.68.2-.02.4.05.55.17.15.13.25.31.27.5.09.38.19.81.3,1.24.37,1.44.75,2.96.46,3.11-4.02,2.07-5.06,2.78-6.19,3.77-.01,0-.02.02-.03.02-.19.1-.28.34-.19.54l1.47,2.36c.82.35,1.67.63,2.54.84.06.02.13.02.19.01.06-.01.12-.04.17-.07.08-.06.16-.14.24-.21.19-.2.64.04.64.44-.01.67-.1,1.34-.27,1.99,0,0-.2.46-.61.39-.18-.02-4.28-.9-4.28-.9l-.92-.47s.01.21.08.33c.33.59.61,1.2.84,1.82.68,1.67,1.34,3.31,3.47,3.62.03,0,.07.01.09.03.03.02.05.04.07.07.01.03.02.06.02.1-.01.03-.02.06-.03.09-.38.42-.88.71-1.43.83-1.29.33-2.67,0-3.67-.89-.48-.48-.64-.61-.64-.35.49,1.28.61,2.67.34,4.01-.01.02-.02.04-.03.07-.02.02-.04.03-.07.05-.02.01-.04.02-.07.02-.03,0-.05,0-.08-.02-1.13-.55-2.33-.93-3.57-1.13-.04-.01-.09-.01-.14,0-.98.39-1.83,1.06-2.44,1.91v.02c-.08.11-.18.21-.29.28-.12.06-.37-.28-.54-.56-.63-1.05-.82-.77-1-.5-.03.06-.08.12-.12.16-.03.03-.07.08-.12.15-.35.45-1.24,1.61-4.18,2.48-.29.09-.18-.26-.03-.71ZM89.85,76.3c-.04.4-.09.78-.16,1.1-.01.11-.07.21-.15.29-.08.08-.17.13-.28.15l-5.63.88c-.46.07-.81-.1-.28-.73,1.5-1.55,2.87-3.23,4.1-5.01-.19-.68-.48-1.34-.87-1.94-1.83-2.96-3.52-5.72-5.23-8.72-.97-1.72-1.41-1.63-1.41-1.63-4.13-.77-6.75-1.44-9.83-3.38-.23-.07-.21.21-.21.21v.5c-.02,1.12-.05,3.23.23,3.64.75.94,1.84,1.55,3.04,1.69,0,0,.3.48-.66,1.32-.05.03-.09.08-.11.14-.02.06-.02.12,0,.18.15.39.66.41,1.13.33.24,0-.15.66-.9,1.36-.18.17,0,.75.32.91.01.01.02.03.03.04v.1s-.02.03-.03.04c-.07.08-.19.2-.34.34-.43.41-1.05,1.02-1.04,1.49l.21,3.71c.02.06.02.13,0,.19-.07.07-.16.12-.26.14l-5.49,1.36c-.08.02-.17.02-.25-.01-.08-.03-.15-.08-.19-.15-.15-.19,0-.48,0-.48l3.38-5.09.17-.28c.19-1.04-.59-1.99-1.24-2.79-.09-.11-.18-.22-.26-.32-.94-1.13-1.94-2.2-2.99-3.22-.87-.75-1.52-3.26-1.83-4.49-.06-.18-.09-.34-.12-.45-.09-.34-.44-.19-.74.09-.64.64-1.2,1.37-1.65,2.15-.24.64-.34,1.32-.3,2,.1.37.38.98,1.68.96-.05.6-.32,1.15-.77,1.55,0,0-.24.09-.08.25.28.26.58.49.9.7-.15.48-.4.93-.72,1.32-.83,1.05.32.86.32.86-.22.61-.5,1.21-.83,1.77-.64,1.06-.54,2.44-.46,3.57.05.45.05.89.02,1.34,0,.26-.36.48-.77.54l-5.74.21c-.34,0-.3-.42-.1-.65l4.04-4.82c.2-.24.17-.59-.06-.8-.02-.03-.04-.06-.06-.09-1.41-1.87-2.54-3.93-3.38-6.12-.33-1.13-.61-2.53-.61-2.53-.84.11-3.17.43-3.02,1.64-.2.55.5,2.46.97,2.48-.04.42-.34.76-.74.87-.74.26-1.83,1.01-1.71,1.35.09.12.2.22.33.29.13.07.27.12.42.12v.06c-.37.53-.92.91-1.54,1.07-.33.09-.64.24-.91.44-.26.21-.29.65.55.65-.28.35-.68.6-1.11.7-.14.04-.28.09-.41.15,0,0-.77.28-.62.56.09.17.18.33.29.48.07.09.1.14.09.18,0,.05-.05.1-.12.19-.01.01-.02.02-.03.03-.27.37-.67.63-1.13.71-.3.09-.58.24-.83.43-.21.23-.34.52-.37.82-.04.24-.1.48-.19.71-.46,1.2-1.07,2.34-1.83,3.38-.02.02-.04.04-.07.06-.02.01-.05.02-.08.02-.03,0-.06,0-.09-.02-.03-.01-.05-.03-.07-.06l-3.61-3.04c-.09-.08-.15-.19-.17-.31-.03-.12-.02-.24.03-.35.26-.58.75-.85,1.27-1.13.18-.1.36-.2.54-.32,1.08-.59,2.06-1.35,2.89-2.25.15-.22.25-.47.29-.73.32-2.02.86-4.24,1.35-6.34.2-.83.39-1.64.57-2.41.17-.84-.77-.65-.77-.65-1.06.25-2.15.37-3.24.36-.32,0-.39.11-.65.71-.33.77-.81,2.41-.36,3.02.38.54,1.02.83,1.68.75-.26.74-.79,1.36-1.47,1.73-.26.17-.45.43-.53.73,0,.16,0,.75.94.61v.1c-.27.54-.66,1.02-1.13,1.41-.33.24-.64.51-.93.8-.16.2-.19.68.5.66v.17c-.26.61-.69,1.13-1.25,1.5-.44.27-.81.66-1.05,1.13-.24.57-.45,1.16-.61,1.76-.36,1.18-.71,2.36-1.06,2.15-.99-.7-3.38-2.9-3.38-2.9-.14-.1-.25-.24-.3-.41-.08-.41.56-.83,1.09-1.16.19-.12.36-.23.48-.33.15-.14.3-.26.47-.39.62-.49,1.29-1.02,1.41-2.1.05-1.69-.19-3.37-.72-4.97-.42-1.6-.65-3.25-.7-4.91.04-.1-.02-.21-.12-.25,0,0,0,0,0,0-1.45-.19-2.85-.6-4.18-1.22,0,0-.32-.19-.32.11v2.72c-.17,1.36.79,1.99,1.98,2.04.81,0,.08.91-.4,1.52-.06.07-.1.13-.15.18-.66.82-.81,1.4-.52,1.77.09.12.22.2.37.21.37.08.7.27.96.54-.44.53-.84,1.1-1.2,1.69,0,0-.63.99.89,1.45-.17.54-.46,1.02-.86,1.43-.19.2-.36.43-.48.68-.24.49.27,1,.54,1.27.1.11.17.18.15.2-1.79,1.13-3.12,2.49-3.38,3.38-.57,1.9-1.04,3.82-1.4,5.77-.1.29-.27.55-.51.75-.23.2-.52.33-.82.38-1.16.05-2.14.03-3.12.01-.48,0-.97-.01-1.47-.01s-.28-.38-.28-.38c.58-.96,1.24-1.87,1.98-2.71,1.53-1.87,3.08-3.75,2.69-6.19-.87-5.24-2.08-9.47-3.26-13.59-1.01-3.5-2-6.92-2.72-10.81-.37-2.92-.02-5.89,1.01-8.64.14-.15.35.06.63.34.39.38.92.9,1.62.87.82-1.07,1.79-2.02,2.89-2.8,1.39.22,2.75.6,4.05,1.13.37-.07.87-2.03,1.04-3.03,1.02.27,2.09.23,3.08-.12,1.4-.61,1.82-1.15,2.06-1.43.12-.15.19-.23.3-.21.64.07,1.25,1.31,1.31,2.08,0,0,0,.8.44.69.71-.18,1.32-.73,1.8-1.17.37-.33.66-.6.88-.59.5.02,1.04,1.4,1.13,2.38,0,0,.09.57.79.3.75-.32,1.44-.74,2.07-1.25.03-.02.07-.03.1-.04.04,0,.08,0,.11.02.04.01.07.04.1.07.02.03.04.07.05.1.17.36.32.73.45,1.11.24.66.42,1.18.88,1.24.54,0,1.05-.27,1.37-.7l.02-.03h-.01c.2-.23.87-.91,1.06-.76.15.17.26.37.33.59.18.47.42,1.07,1.07,1.39l-.29-.15c.09.07.18.13.28.18.46.24.81-.11,1.13-.8.18-.44.62-.96.78-.93.06,0,.12.12.23.28.17.35.44.64.77.85.6.32,1.13.37,1.13,0,.18-.82.81-1.4.92-1.13.2.35.49.65.82.88.18.14.38.23.6.29.22.05.44.06.66.02,1.56-.17,2.62-1.42,2.33-1.58-1.2-.75-1.98-2.02-2.08-3.43-.11-1.21.51-2.37,1.59-2.95.82-.35,1.77-.27,2.52.21.55.41.87,1.07.87,1.76.03.31-.01.62-.14.9-.13.29-.33.53-.59.7-.51.25-1.11.21-1.58-.1-.2-.17-.37-.38-.48-.61-.1-.19-.23-.36-.39-.51h-.09c-.09.38-.09.78.02,1.16.11.38.32.72.6.99.33.38.76.64,1.25.75.49.11,1,.07,1.46-.12,1.59-.61,2.93-3.75,3.33-4.7l.05-.11c.58-1.7,1.27-3.37,2.07-4.99,1.29-2.01,3.56-3.17,5.94-3.05,3.16.17,5.69,2.7,5.85,5.86.1.98-.02,1.97-.37,2.9-.35.92-.91,1.75-1.64,2.42-.71.81-.8,1.04-.53,1.25.63.42,1.2.93,1.7,1.51,2.22,2.7,3.39,5.79,4.59,8.93.24.62.47,1.25.72,1.88.28.95.62,1.89,1,2.8,1.22,1.48,2.68,2.76,4.31,3.78.08.1.03.17-.03.27-.14.17-.21.39-.2.62.06.15.16.28.28.38.12.1.27.16.43.18.17,0,1.13.15.9.42-.46.56-.72,1.25-.74,1.97.05.36.17.31.43.21.27-.12.56-.17.84-.15.2,0,.29.15.18.33-.36.56-.6,1.19-.69,1.85-.05.31.05.63.27.85.11.11.25.19.39.24.15.05.31.06.46.03.02,0,.05,0,.07,0,.02,0,.04.02.06.03.01.02.02.04.03.06v.07c-.05.13-.13.24-.24.33-.28.26-.48.59-.6.96-.51,1.73-.19,2.8,1.27,4.5.22.26.49.49.78.68.23.14.44.33.61.54-1.38,1.24-1.56,2.87-1.7,4.16Z"/></svg>