<?xml version="1.0" encoding="UTF-8"?><svg id="pokehouse" xmlns="http://www.w3.org/2000/svg" viewBox="0 0 100 100"><defs><style>.cls-1{fill:#76d2f6;}.cls-2{fill:#fff;}.cls-3{fill:#1386a1;}</style></defs><path class="cls-1" d="M0,0v100h100V0H0ZM34.17,15.62c1.01-1.69,2.7-2.7,4.38-2.7h1.35c3.63,0,6.61,2.27,7.05,5.84.47.81.79,1.73.88,2.77.67,3.37-1.69,6.4-4.72,7.08h-3.71c-.67,0-1.35-.34-2.02-.67-.67-.34-1.35-.67-1.69-1.35-.34,0-.67-.34-.67-.67-.82-.95-1.19-2.01-1.26-3.1-1.5-2.27-.84-5.02.41-7.21ZM88.95,59.29c-.67,3.03-2.7,5.73-5.06,8.09-.33.33-3.28,2.96-3.69,3.03,0,.03.02.07.03.1.55,1.21,4.11,10.3-2.41,18.44,0,0-.34.67-1.01.67-.34,0-1.01-.34-1.01-.67-1.69-3.37-3.37-5.73-5.06-8.09-.67-.67-1.69-2.7-2.36-3.71-.64-1.27-.97-2.25-1.29-3.49-.33-.75-.55-1.46-.77-2.24-1.71,1.47-8.79,6.71-19.76,6.74,0,.05.02.1.03.15.52.79,2.03,4.27-.45,8.61,0,0-.67,1.01-2.02-.34,0,0-1.01-1.69-2.02-2.36,0,0-3.37-2.02-5.39-4.04-.67-.34-1.01-1.35-1.35-2.02v-.96s-.03-.04-.04-.06c-.85-.07-8.48-2.84-15.8-13.47,0,0-1.6-2.75-2.54-6.16-.31-.78-.6-1.66-.86-2.58-.4-.38-.98-1.04-.98-1.71,0-.29.06-.58.14-.84-.4-.38-.99-1.04-.99-1.71,0-1.01.67-2.02.67-2.02-.34-1.01-.34-2.02.34-3.03.42-.63.97-1.24,1.57-1.79-.03-.02-.04-.04-.04-.04-1.06-.8-1.49-2.01-1.46-3.15-.82-1-1.02-2.34-.74-3.45,0-1.01.34-1.69,1.01-2.36.34,0,.34-.34.67-.67,1.01-1.01,1.69-2.02,2.7-2.7l.34-.34c.34-.34.67-.34,1.01-.67,1.01-.34,2.36-.34,3.37.34l1.22.93s-.02-.04-.03-.06c-.11-.42-.14-.88-.12-1.34-.31-.35-.56-.76-.73-1.21-.34-1.35,0-3.03.67-4.04.67-1.01,1.35-1.35,2.02-1.69.34,0,.67-.34,1.01-.34,1.01-.67,2.7-.34,3.71.67.88.88,1.35,2.08,1.44,3.29,1.4,2.09,1.17,5.18-.92,6.68-1.02.73-2.3.95-3.51.75l.97.74c1.01.67,2.02,1.35,3.03,2.02,1.69-.34,3.71-.67,5.39-.67,0,0,3.71-.34,7.75,1.01.34-.34,2.7-2.7,6.4-2.7,2.36,0,4.72.67,6.74,1.35,1.69.67,3.37,1.01,5.06,1.35,1.01,0,2.7,0,3.71.67,0,0,.67.67,0,2.02-.02.04-.04.08-.07.13.34.1.65.22.92.4,0,0,.67.67,0,2.02-.63,1.25-3.3,5.71-7.46,7.14,2.14,2.85,5.53,7.77,6.95,11.54,1.69-2.02,3.37-3.71,5.39-5.06,2.02-1.35,4.38-2.36,6.74-3.03,2.02-.34,4.04-.67,6.07-2.02.34-.34,1.01-.34,1.69-.34.64.32.82,1.4.8,2.55.02,0,.03,0,.05,0,1.35.67.67,4.72.34,5.73Z"/><path class="cls-3" d="M31.99,33.68c2.36-1.69,2.36-5.39.34-7.42-1.01-1.01-2.7-1.35-3.71-.67-.34,0-.67.34-1.01.34-.67.34-1.35.67-2.02,1.69-.67,1.01-1.01,2.7-.67,4.04,1.01,2.7,4.72,3.71,7.08,2.02Z"/><path class="cls-3" d="M35.69,26.6c.34.67,1.01,1.01,1.69,1.35.67.34,1.35.67,2.02.67h3.71c3.03-.67,5.39-3.71,4.72-7.08-.34-3.71-3.37-6.07-7.08-6.07h-1.35c-1.69,0-3.37,1.01-4.38,2.7-1.35,2.36-2.02,5.39,0,7.75,0,.34.34.67.67.67Z"/><path class="cls-3" d="M88.61,53.56h0c-.67,0-1.35,0-1.69.34-2.02,1.35-4.04,1.69-6.07,2.02-2.36.67-4.72,1.69-6.74,3.03s-3.71,3.03-5.39,5.06h0c-2.02-5.39-8.09-13.15-8.76-13.82h0c4.72-1.01,7.75-6.07,8.43-7.42.67-1.35,0-2.02,0-2.02-1.01-.67-2.7-.67-3.71-.67-1.69-.34-3.37-.67-5.06-1.35-2.02-.67-4.38-1.35-6.74-1.35-3.71,0-6.07,2.36-6.4,2.7-4.04-1.35-7.75-1.01-7.75-1.01-1.69,0-3.71.34-5.39.67-1.01-.67-2.02-1.35-3.03-2.02l-5.73-4.38c-1.01-.67-2.36-.67-3.37-.34-.34.34-.67.34-1.01.67l-.34.34c-1.01.67-1.69,1.69-2.7,2.7-.34.34-.34.67-.67.67h0c-.67.67-1.01,1.35-1.01,2.36-.34,1.35,0,3.03,1.35,4.04,0,0,1.01,1.01,2.02,1.69-1.01.67-2.02,1.69-2.7,2.7-.67,1.01-.67,2.02-.34,3.03,0,0-.67,1.01-.67,2.02s1.35,2.02,1.35,2.02c.67,4.38,3.03,8.43,3.03,8.43,7.42,10.79,15.17,13.48,15.84,13.48v1.01c.34.67.67,1.69,1.35,2.02,2.02,2.02,5.39,4.04,5.39,4.04,1.01.67,2.02,2.36,2.02,2.36,1.35,1.35,2.02.34,2.02.34,2.7-4.72.67-8.43.34-8.76h0c12.13,0,19.55-6.4,20.22-7.08h0c0,.67.34,2.02.34,2.36.34,1.35.67,2.36,1.35,3.71.67,1.01,1.69,3.03,2.36,3.71,1.69,2.36,3.37,4.72,5.06,8.09,0,.34.67.67,1.01.67.67,0,1.01-.67,1.01-.67,6.74-8.43,2.7-17.86,2.36-18.54.34,0,3.37-2.7,3.71-3.03,2.36-2.36,4.38-5.06,5.06-8.09.34-1.01,1.01-5.06-.34-5.73ZM17.49,40.08c.34-.67.34-1.01.67-1.35s.67-.67.67-1.01c1.01-.67,1.69-1.35,2.36-2.02l.34-.34s.34-.34.67-.34h.67l5.73,4.38c3.37,2.36,7.08,4.72,8.76,6.07,0,.34-.34.34-.34.34l-.34.67.34.67c.34.34.34,1.01.67,1.35.34.34.34.67.67,1.01l.67,1.35c1.01,1.69,1.69,3.37,2.36,5.06-.34-.34-.67-.67-1.01-1.01l-5.73-6.4-1.01,1.35c-.67,1.01-1.69,1.35-2.7,1.69-.67,0-1.69,0-3.03-1.01-.67-.34-1.01-.67-1.35-1.01-.34-.34-.67-1.01-.67-2.02,0-.67.34-1.35.67-2.02v-.34c.34-.67.34-1.69,0-2.36-.34-.67-1.01-1.35-2.36-1.35h0c-1.35,0-2.02.34-2.7.67-.34,0-.34.34-.67.34-.34.34-1.01.34-1.35.67l-.34.34c-.34-.34-1.01-.67-1.35-1.01-.34-1.35-.34-2.02-.34-2.36Z"/><path class="cls-3" d="M16.2,37.56c.35-.71.35-1.06.71-1.41s.71-.71.71-1.06c1.06-.71,1.76-1.41,2.47-2.12l.35-.35s.35-.35.71-.35h.71l6,4.59c3.53,2.47,7.41,4.94,9.17,6.35,0,.35-.35.35-.35.35l-.35.71.35.71c.35.35.35,1.06.71,1.41.35.35.35.71.71,1.06l.71,1.41c1.06,1.76,1.76,3.53,2.47,5.29-.35-.35-.71-.71-1.06-1.06l-6-6.7-1.06,1.41c-.71,1.06-1.76,1.41-2.82,1.76-.71,0-1.76,0-3.17-1.06-.71-.35-1.06-.71-1.41-1.06-.35-.35-.71-1.06-.71-2.12,0-.71.35-1.41.71-2.12v-.35c.35-.71.35-1.76,0-2.47-.35-.71-1.06-1.41-2.47-1.41h0c-1.41,0-2.12.35-2.82.71-.35,0-.35.35-.71.35-.35.35-1.06.35-1.41.71l-.35.35c-.35-.35-1.06-.71-1.41-1.06-.35-1.41-.35-2.12-.35-2.47Z"/><path class="cls-2" d="M31.14,31.13c2.36-1.69,2.36-5.39.34-7.42-1.01-1.01-2.7-1.35-3.71-.67-.34,0-.67.34-1.01.34-.67.34-1.35.67-2.02,1.69-.67,1.01-1.01,2.7-.67,4.04,1.01,2.7,4.72,3.71,7.08,2.02Z"/><path class="cls-2" d="M34.84,24.05c.34.67,1.01,1.01,1.69,1.35.67.34,1.35.67,2.02.67h3.71c3.03-.67,5.39-3.71,4.72-7.08-.34-3.71-3.37-6.07-7.08-6.07h-1.35c-1.69,0-3.37,1.01-4.38,2.7-1.35,2.36-2.02,5.39,0,7.75,0,.34.34.67.67.67Z"/><path class="cls-2" d="M87.76,51.01h0c-.67,0-1.35,0-1.69.34-2.02,1.35-4.04,1.69-6.07,2.02-2.36.67-4.72,1.69-6.74,3.03s-3.71,3.03-5.39,5.06h0c-2.02-5.39-8.09-13.15-8.76-13.82h0c4.72-1.01,7.75-6.07,8.43-7.42.67-1.35,0-2.02,0-2.02-1.01-.67-2.7-.67-3.71-.67-1.69-.34-3.37-.67-5.06-1.35-2.02-.67-4.38-1.35-6.74-1.35-3.71,0-6.07,2.36-6.4,2.7-4.04-1.35-7.75-1.01-7.75-1.01-1.69,0-3.71.34-5.39.67-1.01-.67-2.02-1.35-3.03-2.02l-5.73-4.38c-1.01-.67-2.36-.67-3.37-.34-.34.34-.67.34-1.01.67l-.34.34c-1.01.67-1.69,1.69-2.7,2.7-.34.34-.34.67-.67.67h0c-.67.67-1.01,1.35-1.01,2.36-.34,1.35,0,3.03,1.35,4.04,0,0,1.01,1.01,2.02,1.69-1.01.67-2.02,1.69-2.7,2.7-.67,1.01-.67,2.02-.34,3.03,0,0-.67,1.01-.67,2.02s1.35,2.02,1.35,2.02c.67,4.38,3.03,8.43,3.03,8.43,7.42,10.79,15.17,13.48,15.84,13.48v1.01c.34.67.67,1.69,1.35,2.02,2.02,2.02,5.39,4.04,5.39,4.04,1.01.67,2.02,2.36,2.02,2.36,1.35,1.35,2.02.34,2.02.34,2.7-4.72.67-8.43.34-8.76h0c12.13,0,19.55-6.4,20.22-7.08h0c0,.67.34,2.02.34,2.36.34,1.35.67,2.36,1.35,3.71.67,1.01,1.69,3.03,2.36,3.71,1.69,2.36,3.37,4.72,5.06,8.09,0,.34.67.67,1.01.67.67,0,1.01-.67,1.01-.67,6.74-8.43,2.7-17.86,2.36-18.54.34,0,3.37-2.7,3.71-3.03,2.36-2.36,4.38-5.06,5.06-8.09.34-1.01,1.01-5.06-.34-5.73ZM16.64,37.53c.34-.67.34-1.01.67-1.35s.67-.67.67-1.01c1.01-.67,1.69-1.35,2.36-2.02l.34-.34s.34-.34.67-.34h.67l5.73,4.38c3.37,2.36,7.08,4.72,8.76,6.07,0,.34-.34.34-.34.34l-.34.67.34.67c.34.34.34,1.01.67,1.35.34.34.34.67.67,1.01l.67,1.35c1.01,1.69,1.69,3.37,2.36,5.06-.34-.34-.67-.67-1.01-1.01l-5.73-6.4-1.01,1.35c-.67,1.01-1.69,1.35-2.7,1.69-.67,0-1.69,0-3.03-1.01-.67-.34-1.01-.67-1.35-1.01-.34-.34-.67-1.01-.67-2.02,0-.67.34-1.35.67-2.02v-.34c.34-.67.34-1.69,0-2.36-.34-.67-1.01-1.35-2.36-1.35h0c-1.35,0-2.02.34-2.7.67-.34,0-.34.34-.67.34-.34.34-1.01.34-1.35.67l-.34.34c-.34-.34-1.01-.67-1.35-1.01-.34-1.35-.34-2.02-.34-2.36Z"/></svg>