<?xml version="1.0" encoding="UTF-8"?><svg id="autogrill" xmlns="http://www.w3.org/2000/svg" viewBox="0 0 100 100"><defs><style>.cls-1{fill:#ed1c2e;}</style></defs><path class="cls-1" d="M74,70.48c2.84.57,3.02-4.14-.02-3.63-1.87.31-1.99,3.23.02,3.63ZM74.87,68.88l.52,1.11c-.87.15-.56-1.32-1.48-1.16v1.16c-.12.04-.42-.05-.42-.16v-2.33l.18-.14c1.2-.21,2.72.47,1.21,1.52Z"/><path class="cls-1" d="M0,.06v100.01h100.01V.06H0ZM31.54,66.92l16.96-48.33c.03-.09.08-.12.14-.15.97-2.75,1.56-4.43,1.56-4.43h3.35l15.57,43.12c-4.26,1.97-8.65,3.65-13.12,5.07-.94.34-1.9.66-2.86.93l-8.73-23.52c-3.22,9.12-6.44,18.23-9.65,27.35-1.08.05-2.16.05-3.24,0,0,0,0-.02.02-.05h0ZM94.61,42.78c-3.48,6.48-9.43,12.47-15.04,17.15-3.22,2.68-6.65,5.13-10.17,7.41l5.83,16.1h7.04v2.54h-30.71v-2.54h9l-3.28-9.21c-6.51,3.06-13.25,5.76-20.31,7.27-6.59,1.41-17.65,2.76-22.9-2.45-.26-.26-1.48-1.66-1.33-1.96l9.96-11.34c1.24,2.52,4.05,3.62,6.69,4.01,10.15,1.5,25.66-4.24,34.95-8.44,11.32-5.11,22.5-11.86,30.64-21.37.32-.32.85-.16.83.31-.01.31-.97,2.1-1.19,2.51ZM72.78,70.27c-2.1-2.1,1.08-5.28,3.19-3.24,2.14,2.06-1.05,5.39-3.19,3.24Z"/><path class="cls-1" d="M75.07,68.04c-.29-.35-.76-.27-1.16-.27v.64c.41-.03,1.04.17,1.16-.37Z"/></svg>